<mxfile host="app.diagrams.net" modified="2024-07-05T13:18:31.318Z" agent="Mozilla/5.0 (Windows NT 10.0; Win64; x64) AppleWebKit/537.36 (KHTML, like Gecko) Chrome/126.0.0.0 Safari/537.36" version="24.6.4" etag="h7CzD6bwad5FNOs8XHV5" type="github">
  <diagram name="ページ1" id="fN9mV6IyBKQqi_vgUfpH">
    <mxGraphModel>
      <root>
        <mxCell id="0" />
        <mxCell id="1" parent="0" />
      </root>
    </mxGraphModel>
  </diagram>
</mxfile>
